<svg width="276" height="286" viewBox="0 0 276 286" fill="none" xmlns="http://www.w3.org/2000/svg">
<path d="M94.1195 89.1459C102.42 87.856 102.246 70.1719 87.5992 65.0188C72.9527 59.8658 80.5049 48.3924 87.7669 50.927C95.0289 53.4616 95.1514 70.3976 106.09 71.9067C117.028 73.4159 119.33 51.5397 113.319 44.497C107.308 37.4543 119.575 40.3629 121.058 38.2475C123.425 34.8294 115.557 18.4222 124.141 19.8733C128.391 20.5892 123.935 31.1468 127.114 46.8381C130.294 62.5294 134.106 70.3395 141.303 61.9941C148.5 53.6486 140.574 47.1025 145.85 43.1362C151.125 39.1698 155.382 42.7814 154.879 47.7668C154.376 52.7521 154.157 57.6537 157.652 55.8672C161.148 54.0807 166.9 45.7353 169.758 39.1763C172.615 32.6173 175.865 33.0365 176.13 37.9251C176.394 42.8137 163.392 53.4551 163.057 60.7365C162.721 68.0178 167.79 81.2067 179.309 72.4356C190.828 63.6645 193.498 60.472 197.483 65.1607C201.469 69.8494 198.509 77.5241 205.029 77.4145C211.549 77.3048 219.676 59.9561 223.777 61.2911C227.879 62.6261 235.625 66.399 221.527 74.1898C207.428 81.9806 202.649 81.6453 203.275 90.1455C203.9 98.6458 236.921 99.6583 233.587 105.295C230.253 110.932 193.304 110.255 189.447 124.14C185.591 138.026 205.571 135.904 202.075 143.675C198.58 151.447 190.466 140.347 183.134 133.788C175.801 127.229 175.646 132.137 169.196 134.208C162.747 136.278 161.335 132.602 157.194 131.557C153.054 130.512 155.582 139.006 149.352 138.103C143.122 137.2 147.417 135.923 143.199 134.304C138.981 132.685 135.337 148.77 126.27 146.261C117.202 143.753 111.688 136.426 106.012 141.598C100.337 146.771 104.484 157.754 96.3897 156.993C88.2957 156.232 91.1657 148.686 94.5903 147.809C98.0149 146.932 107.263 134.524 105.664 129.751C104.064 124.978 88.644 137.69 85.3548 131.157C82.0657 124.624 79.215 119.019 71.321 120.986C63.427 122.953 62.221 111.957 68.3995 112.125C74.578 112.293 88.9149 113.37 90.0371 108.197C91.1592 103.025 87.496 97.2334 77.7446 92.3512C67.9932 87.469 77.564 77.5951 84.4197 83.0512C91.2753 88.5074 87.5541 90.1391 94.1195 89.1459Z" fill="#FFCC00"/>
<path d="M26.4658 169.576L20.9516 157.825H41.2799L26.4658 169.576Z" stroke="#263238" stroke-linecap="round" stroke-linejoin="round"/>
<path d="M114.267 88.2173L116.815 95.0665L105.406 94.1185L114.267 88.2173Z" stroke="#263238" stroke-linecap="round" stroke-linejoin="round"/>
<path d="M117.221 17.8999L123.329 20.8537L117.221 23.8398L123.329 27.6191L117.221 31.708L124.07 34.8746L118.672 39.9051" stroke="#263238" stroke-linecap="round" stroke-linejoin="round"/>
<path d="M238.301 198.991L236.244 211.535H249.375L250.4 207.672L241.655 207.595L243.325 198.456L238.301 198.991Z" stroke="#263238" stroke-linecap="round" stroke-linejoin="round"/>
<path d="M214.514 239.154C216.675 236.993 216.675 233.489 214.514 231.328C212.353 229.167 208.849 229.167 206.688 231.328C204.527 233.489 204.527 236.993 206.688 239.154C208.849 241.315 212.353 241.315 214.514 239.154Z" stroke="#263238" stroke-linecap="round" stroke-linejoin="round"/>
<path d="M79.3118 58.7888C82.3679 58.7888 84.8453 56.3113 84.8453 53.2552C84.8453 50.1991 82.3679 47.7217 79.3118 47.7217C76.2557 47.7217 73.7782 50.1991 73.7782 53.2552C73.7782 56.3113 76.2557 58.7888 79.3118 58.7888Z" stroke="#263238" stroke-linecap="round" stroke-linejoin="round"/>
<path d="M249.014 147.1L261.203 154.071" stroke="#263238" stroke-linecap="round" stroke-linejoin="round"/>
<path d="M257.456 146.79L252.761 156.032" stroke="#263238" stroke-linecap="round" stroke-linejoin="round"/>
<path d="M190.363 104.882L177.161 109.674" stroke="#263238" stroke-linecap="round" stroke-linejoin="round"/>
<path d="M185.139 111.519L181.121 101.961" stroke="#263238" stroke-linecap="round" stroke-linejoin="round"/>
<path d="M65.2199 153.936C65.1296 154.181 74.8166 149.75 74.8166 149.75L79.5504 160.592L69.9473 164.777L65.2199 153.936Z" stroke="#263238" stroke-linecap="round" stroke-linejoin="round"/>
<path d="M198.128 139.412C198.025 139.412 200.708 142.637 200.708 142.637L197.09 145.526L194.51 142.301L198.128 139.412Z" stroke="#263238" stroke-linecap="round" stroke-linejoin="round"/>
<path d="M20.9516 109.326C20.9516 109.815 20.8067 110.292 20.5353 110.698C20.2639 111.105 19.8781 111.421 19.4267 111.608C18.9754 111.795 18.4787 111.844 17.9996 111.749C17.5204 111.653 17.0803 111.418 16.7348 111.073C16.3894 110.727 16.1541 110.287 16.0588 109.808C15.9635 109.329 16.0124 108.832 16.1994 108.381C16.3863 107.929 16.7029 107.544 17.1091 107.272C17.5153 107.001 17.9929 106.856 18.4815 106.856C18.8061 106.855 19.1277 106.918 19.4277 107.042C19.7278 107.166 20.0004 107.348 20.23 107.578C20.4595 107.807 20.6414 108.08 20.7653 108.38C20.8891 108.68 20.9524 109.001 20.9516 109.326Z" stroke="#263238" stroke-linecap="round" stroke-linejoin="round"/>
<path d="M170.486 20.3636C170.488 20.8524 170.344 21.3306 170.073 21.7376C169.803 22.1447 169.417 22.4623 168.966 22.6502C168.515 22.8382 168.018 22.888 167.538 22.7934C167.059 22.6989 166.618 22.4641 166.272 22.1189C165.926 21.7737 165.69 21.3336 165.594 20.8543C165.498 20.3749 165.547 19.878 165.734 19.4262C165.92 18.9745 166.237 18.5883 166.643 18.3166C167.05 18.0449 167.527 17.8999 168.016 17.8999C168.67 17.8999 169.298 18.1593 169.761 18.6211C170.224 19.0829 170.485 19.7096 170.486 20.3636Z" stroke="#263238" stroke-linecap="round" stroke-linejoin="round"/>
<path d="M201.604 169.183L204.229 173.568L198.864 173.987L200.289 178.089L194.342 178.541L197.232 186.415" stroke="#263238" stroke-linecap="round" stroke-linejoin="round"/>
<path d="M62.4661 204.918L67.0967 207.705L60.8989 212.761L64.7814 215.212L59.7896 220.745" stroke="#263238" stroke-linecap="round" stroke-linejoin="round"/>
<path d="M196.284 63.7744L192.466 59.9434L199.708 56.5446L196.542 53.2232L202.727 49.0698" stroke="#263238" stroke-linecap="round" stroke-linejoin="round"/>
<path d="M47.0844 65.9087C47.0844 65.9087 74.7005 106.54 113.629 113.344" stroke="#263238" stroke-linecap="round" stroke-linejoin="round"/>
<path d="M40.0804 74.5312C40.0804 74.5312 79.6342 115.891 111.114 118.226" stroke="#263238" stroke-linecap="round" stroke-linejoin="round"/>
<path d="M36.8944 87.5654C36.8944 87.5654 77.1964 121.818 107.876 123.753" stroke="#263238" stroke-linecap="round" stroke-linejoin="round"/>
<path d="M36.8944 101.767C36.8944 101.767 70.2117 127.352 105.445 127.777" stroke="#263238" stroke-linecap="round" stroke-linejoin="round"/>
<path d="M71.0115 84.3218C70.0182 83.2798 69.3677 81.9587 69.1476 80.536C69.0176 79.8232 68.9958 79.0948 69.0831 78.3755L60.2668 94.3119C59.8132 92.8842 58.9497 91.6214 57.7838 90.6809C55.2944 88.5848 52.16 88.2043 50.7863 89.8424C49.4126 91.4806 50.3155 94.4989 52.8049 96.5949C55.2944 98.691 58.4288 99.065 59.8089 97.4333C60.0177 97.1791 60.1774 96.8882 60.2797 96.5756L67.2192 84.0187C67.9016 85.1588 68.8156 86.1431 69.9022 86.908C70.6361 87.4286 71.2075 88.1466 71.5499 88.9788C71.8924 89.811 71.9919 90.7231 71.837 91.6096C71.9079 91.3967 73.8492 87.2949 71.0115 84.3218Z" fill="#263238"/>
<path d="M75.7259 112.279C74.8839 111.391 74.3347 110.265 74.1523 109.055C74.0412 108.453 74.0216 107.837 74.0942 107.229L66.6517 120.728C66.2694 119.521 65.5405 118.454 64.5556 117.658C62.4532 115.885 59.8025 115.569 58.6416 116.949C57.4807 118.329 58.2417 120.883 60.3507 122.656C62.4596 124.43 65.1038 124.746 66.2647 123.366C66.4423 123.152 66.578 122.907 66.6646 122.643L72.5335 112.028C73.1106 112.991 73.8841 113.822 74.8037 114.466C75.4201 114.909 75.8981 115.519 76.1823 116.223C76.4665 116.927 76.5453 117.698 76.4096 118.445C76.487 118.264 78.1251 114.795 75.7259 112.279Z" fill="#263238"/>
<path d="M103.11 109.7C102.494 109.027 102.03 108.23 101.749 107.362C101.469 106.494 101.378 105.575 101.485 104.669L94.0292 118.155C93.6463 116.945 92.915 115.875 91.9267 115.079C89.8242 113.305 87.1735 112.989 86.0127 114.369C84.8518 115.749 85.6128 118.31 87.7217 120.077C89.8307 121.844 92.4749 122.173 93.6358 120.786C93.8133 120.573 93.949 120.328 94.0357 120.064L99.911 109.448C100.484 110.413 101.255 111.244 102.175 111.886C102.791 112.33 103.27 112.939 103.555 113.643C103.84 114.347 103.921 115.118 103.787 115.866C103.871 115.685 105.509 112.209 103.11 109.7Z" fill="#263238"/>
<path d="M201.843 87.7786C194.214 106.004 204.1 125.372 225.506 128.216C246.911 131.06 257.707 116.014 248.524 111.261C239.34 106.508 240.462 99.5164 238.346 84.3604C236.231 69.2044 209.46 69.5785 201.843 87.7786ZM236.27 103.302C227.041 110.487 229.175 98.1427 232.49 97.0334C235.805 95.9241 239.74 100.619 236.27 103.302Z" fill="#999999" stroke="#263238" stroke-linecap="round" stroke-linejoin="round"/>
<path d="M229.936 79.9812C227.692 79.5168 226.222 82.3545 224.448 83.2058C225.325 84.793 226.297 86.3263 227.357 87.7978C227.514 87.6129 227.713 87.4677 227.937 87.3736C228.161 87.2795 228.404 87.2392 228.647 87.256C229.001 87.3161 229.35 87.4023 229.691 87.514C230.16 87.6177 230.649 87.5817 231.098 87.4105C231.547 87.2393 231.935 86.9404 232.216 86.5506C232.497 86.1609 232.657 85.6975 232.677 85.2176C232.697 84.7378 232.576 84.2626 232.329 83.8508C232.187 83.6186 232.007 83.3606 232.084 83.1027C232.162 82.8447 232.503 82.7028 232.581 82.4577C232.606 82.2685 232.558 82.0768 232.445 81.9224C232.188 81.44 231.831 81.0175 231.399 80.6829C230.967 80.3483 230.468 80.1091 229.936 79.9812Z" fill="#FFCC00" stroke="#263238" stroke-linecap="round" stroke-linejoin="round"/>
<path d="M216.354 83.0575C215.116 82.806 213.729 82.864 212.736 82.0836C212.536 81.8742 212.288 81.7169 212.014 81.6257C211.666 81.6142 211.328 81.7392 211.072 81.974C209.816 82.7238 208.733 83.7304 207.893 84.9278C207.144 86.179 207.015 87.9139 207.983 89.0038C208.518 89.6036 209.376 90.0486 209.434 90.8483C209.492 91.648 207.847 93.7054 209.84 93.8731C210.482 93.8571 211.103 93.6456 211.62 93.2668C212.588 92.7122 213.936 93.0217 214.735 92.351C215.419 91.7641 214.768 90.5516 215.87 90.1647C216.58 89.9132 218.115 90.7064 218.308 89.5197C218.437 88.6684 217.231 88.3653 216.941 87.701C216.859 87.4517 216.852 87.1837 216.921 86.9303C216.989 86.677 217.131 86.4494 217.328 86.2757C217.731 85.9419 218.196 85.69 218.695 85.5341C218.96 84.2635 217.567 83.3026 216.354 83.0575Z" fill="#FFCC00" stroke="#263238" stroke-linecap="round" stroke-linejoin="round"/>
<path d="M215.761 101.438C215.484 101.219 214.02 101.741 213.387 101.058C210.898 98.3746 204.558 107.668 208.686 109.152C208.97 109.219 209.241 109.334 209.486 109.493C210.343 110.209 209.273 111.86 210.073 112.641C210.872 113.421 211.962 112.428 212.975 112.473C213.355 112.554 213.741 112.604 214.129 112.621C214.648 112.491 215.097 112.168 215.387 111.718C216.419 110.487 217.612 108.919 217.425 107.204C217.289 105.914 216.374 104.54 215.967 103.334C215.632 102.341 216.586 102.283 215.761 101.438Z" fill="#FFCC00" stroke="#263238" stroke-linecap="round" stroke-linejoin="round"/>
<path d="M227.602 115.459C227.154 114.94 226.756 114.378 226.415 113.782C225.996 113.247 225.19 112.854 224.635 113.26C224.377 113.447 224.216 113.782 223.906 113.866C223.655 113.891 223.402 113.851 223.171 113.75C222.821 113.655 222.451 113.664 222.106 113.776C221.76 113.887 221.455 114.098 221.228 114.381C221.001 114.663 220.861 115.006 220.826 115.368C220.79 115.729 220.861 116.092 221.03 116.414C221.817 117.936 222.513 122.328 223.926 122.044C225.016 121.818 225.944 123.224 226.944 122.966C228.601 122.547 229.762 117.407 228.614 116.214C228.324 115.911 227.918 115.737 227.602 115.459Z" fill="#FFCC00" stroke="#263238" stroke-linecap="round" stroke-linejoin="round"/>
<path d="M241.287 116.504C240.638 116.207 239.962 115.972 239.269 115.801C238.647 115.587 237.98 115.538 237.334 115.659C237.008 115.732 236.722 115.929 236.538 116.208C236.354 116.487 236.286 116.827 236.347 117.155C236.437 117.439 236.657 117.671 236.753 117.949C237.128 119.013 235.154 120.909 236.902 121.522C238.385 122.037 241.139 121.76 242.319 120.625C244.338 118.639 243.003 117.304 241.287 116.504Z" fill="#FFCC00" stroke="#263238" stroke-linecap="round" stroke-linejoin="round"/>
<path d="M249.53 92.661L251.722 89.8232L254.676 91.7L252.509 94.8537L249.53 92.661Z" fill="#BFBFBF" stroke="#263238" stroke-linecap="round" stroke-linejoin="round"/>
<path d="M249.31 91.8483C237.218 109.72 230.027 122.444 226.738 128.532C226.666 128.66 226.645 128.809 226.679 128.951C226.713 129.093 226.799 129.218 226.92 129.299C227.041 129.38 227.189 129.413 227.333 129.39C227.477 129.368 227.608 129.292 227.699 129.177C231.568 124.598 239.469 114.647 253.083 94.9182C253.812 93.9186 250 90.8616 249.31 91.8483Z" fill="#263238"/>
<path d="M251.471 89.7196C252.086 90.7328 252.967 91.5581 254.018 92.1059C254.018 92.1059 259.732 92.1059 261.422 85.4695C263.112 78.8331 266.369 77.4143 266.369 77.4143C266.166 77.243 265.924 77.1232 265.665 77.0648C265.406 77.0064 265.136 77.0113 264.879 77.0789L265.672 76.1953C265.255 76.0123 264.796 75.9433 264.342 75.9954C263.889 76.0475 263.458 76.2189 263.093 76.492L263.293 75.2021C262.595 76.3628 261.488 77.2208 260.19 77.6078C258.14 78.0657 249.368 81.6966 251.471 89.7196Z" fill="white"/>
<mask id="mask0_9_205" style="mask-type:luminance" maskUnits="userSpaceOnUse" x="251" y="75" width="16" height="18">
<path d="M251.471 89.7196C252.086 90.7328 252.967 91.5581 254.018 92.1059C254.018 92.1059 259.732 92.1059 261.422 85.4695C263.112 78.8331 266.369 77.4143 266.369 77.4143C266.166 77.243 265.924 77.1232 265.665 77.0648C265.406 77.0064 265.136 77.0113 264.879 77.0789L265.672 76.1953C265.255 76.0123 264.796 75.9433 264.342 75.9954C263.889 76.0475 263.458 76.2189 263.093 76.492L263.293 75.2021C262.595 76.3628 261.488 77.2208 260.19 77.6078C258.14 78.0657 249.368 81.6966 251.471 89.7196Z" fill="white"/>
</mask>
<g mask="url(#mask0_9_205)">
<path d="M261.422 85.4695C261.261 86.1062 261.046 86.7276 260.777 87.3269C260.9 85.7146 261.545 83.4573 260.777 83.18C259.584 82.7414 259.307 85.1535 259.12 84.3473C258.933 83.5412 259.971 82.0707 259.842 81.1227C259.713 80.1746 258.262 81.8643 257.366 82.0965C256.469 82.3287 258.881 79.5684 258.559 78.8718C258.398 78.6616 258.17 78.5117 257.914 78.4462C258.631 78.0882 259.383 77.8051 260.158 77.6013C261.455 77.2159 262.561 76.3604 263.26 75.2021L263.06 76.492C263.426 76.2189 263.857 76.0475 264.31 75.9954C264.763 75.9433 265.222 76.0123 265.64 76.1953L264.847 77.0854C265.102 77.0135 265.371 77.0059 265.63 77.0633C265.889 77.1207 266.129 77.2413 266.33 77.4143C266.33 77.4143 263.112 78.8331 261.422 85.4695Z" fill="#FFCC00"/>
</g>
<path d="M251.471 89.7196C252.086 90.7328 252.967 91.5581 254.018 92.1059C254.018 92.1059 259.732 92.1059 261.422 85.4695C263.112 78.8331 266.369 77.4143 266.369 77.4143C266.166 77.243 265.924 77.1232 265.665 77.0648C265.406 77.0064 265.136 77.0113 264.879 77.0789L265.672 76.1953C265.255 76.0123 264.796 75.9433 264.342 75.9954C263.889 76.0475 263.458 76.2189 263.093 76.492L263.293 75.2021C262.595 76.3628 261.488 77.2208 260.19 77.6078C258.14 78.0657 249.368 81.6966 251.471 89.7196Z" stroke="#263238" stroke-linecap="round" stroke-linejoin="round"/>
<path d="M133.022 99.7417C133.022 99.7417 129.043 100.664 132.261 105.004C132.261 105.004 128.624 105.604 131.165 110.041C131.165 110.041 128.965 111.905 131.7 115.201C131.7 115.201 130.41 118.425 136.814 122.817C136.814 122.817 136.769 125.558 141.206 126.61C145.076 127.526 146.127 125.907 146.127 125.907C146.127 125.907 151.222 125.262 154.021 121.076C154.021 121.076 158.536 119.702 157.214 116.955C157.214 116.955 160.851 114.117 158.916 112.279C158.916 112.279 163.095 108.068 160.986 106.668C157.284 104.224 133.022 99.7417 133.022 99.7417Z" fill="#263238" stroke="#263238" stroke-linecap="round" stroke-linejoin="round"/>
<path d="M163.282 50.2302C186.036 59.6849 186.326 81.6966 178.516 92.6798C171.421 102.683 161.825 101.928 160.986 106.714C160.148 111.499 133.383 104.527 132.138 101.103C130.894 97.6781 136.447 98.1424 126.166 84.4182C115.886 70.694 135.344 38.6213 163.282 50.2302Z" fill="white"/>
<mask id="mask1_9_205" style="mask-type:luminance" maskUnits="userSpaceOnUse" x="123" y="47" width="61" height="62">
<path d="M163.282 50.2302C186.036 59.6849 186.326 81.6966 178.516 92.6798C171.421 102.683 161.825 101.928 160.986 106.714C160.148 111.499 133.383 104.527 132.138 101.103C130.894 97.6781 136.447 98.1424 126.166 84.4182C115.886 70.694 135.344 38.6213 163.282 50.2302Z" fill="white"/>
</mask>
<g mask="url(#mask1_9_205)">
<path opacity="0.4" d="M160.993 106.688C160.154 111.473 133.383 104.495 132.138 101.077C130.894 97.6586 136.447 98.11 126.166 84.3922C115.886 70.6745 135.344 38.6018 163.282 50.2107C166.015 51.3257 168.612 52.7495 171.022 54.4543C159.593 51.9391 144.063 51.5005 135.499 67.2498C126.179 84.3987 140.658 99.9932 147.972 101.206C147.972 101.206 141.935 96.8072 139.923 89.4098C139.923 89.4098 150.242 104.695 166.365 102.141C163.482 103.515 161.367 104.546 160.993 106.688Z" fill="#FFCC00"/>
</g>
<path d="M163.282 50.2302C186.036 59.6849 186.326 81.6966 178.516 92.6798C171.421 102.683 161.825 101.928 160.986 106.714C160.148 111.499 133.383 104.527 132.138 101.103C130.894 97.6781 136.447 98.1424 126.166 84.4182C115.886 70.694 135.344 38.6213 163.282 50.2302Z" stroke="#263238" stroke-linecap="round" stroke-linejoin="round"/>
<path d="M157.155 112.789C157.155 112.789 146.443 116.394 132.996 111.015" stroke="white" stroke-linecap="round" stroke-linejoin="round"/>
<path d="M150.887 109.564C151.525 109.519 152.161 109.435 152.789 109.312" stroke="white" stroke-linecap="round" stroke-linejoin="round"/>
<path d="M133.822 106.043C138.134 107.885 142.7 109.061 147.365 109.532" stroke="white" stroke-linecap="round" stroke-linejoin="round"/>
<path d="M141.148 117.691C145.611 118.394 150.345 118.529 154.692 117.188" stroke="white" stroke-linecap="round" stroke-linejoin="round"/>
<path d="M133.499 115.82C135.259 116.436 137.058 116.931 138.884 117.304" stroke="white" stroke-linecap="round" stroke-linejoin="round"/>
<path d="M147.991 121.695C143.986 121.244 140.072 120.19 136.382 118.567" stroke="white" stroke-linecap="round" stroke-linejoin="round"/>
<path d="M151.783 121.818C151.203 121.85 150.616 121.818 150.029 121.818" stroke="white" stroke-linecap="round" stroke-linejoin="round"/>
<path d="M137.788 123.521C139.945 125.049 142.51 125.898 145.153 125.958" stroke="white" stroke-linecap="round" stroke-linejoin="round"/>
<path d="M159.561 105.74C159.561 105.74 148.12 98.3876 134.738 99.0971" stroke="#263238" stroke-linecap="round" stroke-linejoin="round"/>
<path d="M151.551 103.657C151.551 103.657 158.11 89.3584 167.268 88.391C167.268 88.391 161.722 83.9345 159.561 83.2637C157.401 82.593 156.027 87.3075 157.536 86.8044C159.045 86.3014 161.199 79.7617 158.626 78.0527C156.053 76.3436 151.087 84.8438 152.551 85.5404C154.015 86.2369 155.84 77.2916 152.254 76.2791C148.668 75.2665 146.011 82.98 147.694 83.1348C149.378 83.2895 149.958 79.9101 146.127 78.6589C141.98 77.2723 136.782 79.3038 136.782 79.3038C136.782 79.3038 144.811 88.9263 142.161 101.18" stroke="#263238" stroke-linecap="round" stroke-linejoin="round"/>
<path d="M175.697 276.925C178.993 272.843 180.96 261.124 180.96 261.124C183.756 263.199 186.206 265.702 188.222 268.541C191.893 267.994 195.502 267.093 198.999 265.852C202.598 264.618 206.022 262.92 209.182 260.802C202.172 250.483 190.305 232.902 182.998 227.375C180.173 225.24 171.421 223.157 171.421 223.157C169.442 221.364 165.12 223.157 165.12 223.157C141.742 229.103 120.362 221.403 120.362 221.403C120.362 221.403 117.331 220.003 114.848 221.403C112.43 221.136 109.99 221.136 107.573 221.403C102.22 222.138 96.3703 228.252 93.9583 231.032L73.4171 254.823C73.4171 254.823 72.727 264.188 74.1781 265.426C85.7869 275.377 102.904 252.766 102.904 252.766C103.013 252.811 103.278 272.456 112.442 282.73C112.442 282.73 118.937 285.696 144.192 283.375C169.254 281.072 175.697 276.925 175.697 276.925Z" fill="#FFCC00"/>
<path opacity="0.2" d="M88.0958 247.794C84.2262 248.136 82.1946 247.207 81.4207 245.556C87.0188 239.107 93.552 231.509 93.9583 231.038L94.6032 230.303C97.5054 236.798 99.9175 246.762 88.0958 247.794Z" fill="black"/>
<path opacity="0.2" d="M105.296 268.283C103.983 263.195 103.181 257.988 102.904 252.74C102.904 252.74 105.715 249.058 106.496 245.188C106.496 245.214 110.146 259.77 105.296 268.283Z" fill="black"/>
<path opacity="0.2" d="M186.087 265.852C184.563 264.087 182.843 262.501 180.96 261.124C180.96 261.124 181.237 251.882 183.817 249.083C185.894 246.833 188.106 258.545 186.087 265.852Z" fill="black"/>
<path d="M175.697 276.925C178.993 272.843 180.96 261.125 180.96 261.125C183.756 263.2 186.206 265.703 188.222 268.541" stroke="#263238" stroke-linecap="round" stroke-linejoin="round"/>
<path d="M209.182 260.802C202.172 250.483 190.305 232.902 182.998 227.375C180.173 225.24 171.421 223.157 171.421 223.157C169.442 221.364 165.12 223.157 165.12 223.157C141.742 229.103 120.362 221.403 120.362 221.403C120.362 221.403 117.331 220.003 114.848 221.403C112.43 221.136 109.99 221.136 107.573 221.403C102.22 222.138 96.3703 228.252 93.9583 231.032L73.4171 254.823C73.4171 254.823 72.727 264.188 74.1781 265.426C85.7869 275.377 102.904 252.766 102.904 252.766C103.013 252.811 103.278 272.456 112.442 282.73" stroke="#263238" stroke-linecap="round" stroke-linejoin="round"/>
<path d="M165.972 217.481L165.662 217.61C165.771 217.584 165.876 217.54 165.972 217.481Z" fill="#263238"/>
<path d="M172.931 200.081C175.381 200.442 175.981 198.643 175.981 198.643C175.981 198.643 172.931 200.081 170.228 194.548C168.693 191.394 169.454 185.603 170.39 181.204C172.279 178.089 175.02 173.781 175.381 168.673C176.026 159.902 171.905 155.458 167.152 156.761C167.152 156.761 166.804 149.351 160.116 146.694C153.428 144.036 152.376 146.216 145.927 144.604C139.478 142.992 133.17 144.398 130.861 148.57C128.553 152.743 127.766 160.321 123.825 163.256C119.885 166.19 112.99 173.252 115.17 181.152C117.35 189.053 116.112 191.755 113.235 195.489C110.359 199.224 112.113 206.576 117.602 208.885C117.602 208.885 115.273 207.64 116.918 205.557C116.918 205.557 118.208 210.51 122.51 209.607C126.811 208.704 132.274 208.401 135.06 211.452C137.846 214.502 148.03 215.321 150.326 212.999C152.622 210.678 154.402 212.832 158.561 214.934C162.721 217.037 167.339 215.192 167.339 215.192C167.339 215.192 166.952 216.992 165.959 217.527C166.804 217.172 169.145 216.056 169.828 214.38C170.512 212.703 170.899 211.084 170.08 207.169C172.963 206.041 171.634 204.132 171.634 204.132C174.356 205.66 175.646 201.145 175.646 201.145C173.111 201.107 172.931 200.081 172.931 200.081Z" fill="#263238"/>
<path d="M167.462 223.963C167.462 223.963 149.255 232.064 143.405 232.392C137.556 232.721 117.66 222.138 117.66 222.138L132.829 217.998C134.892 214.063 134.944 209.433 134.447 204.009C134.293 202.326 134.093 200.739 133.873 199.314C133.357 195.876 132.783 193.477 132.783 193.477L154.221 194.367C153.774 195.729 153.406 197.116 153.118 198.52C152.525 201.433 152.187 204.391 152.106 207.363C151.861 214.779 153.009 218.971 153.009 218.971L167.462 223.963Z" fill="white" stroke="#263238" stroke-linecap="round" stroke-linejoin="round"/>
<path d="M123.142 224.924C123.142 224.924 134.621 226.937 137.472 226.608C140.323 226.279 142.561 229.084 142.561 229.084" fill="white"/>
<path d="M123.142 224.924C123.142 224.924 134.621 226.937 137.472 226.608C140.323 226.279 142.561 229.084 142.561 229.084" stroke="#263238" stroke-linecap="round" stroke-linejoin="round"/>
<path d="M163.482 225.653C163.482 225.653 151.783 226.943 148.952 227.007C146.121 227.072 145.282 229.084 145.282 229.084" fill="white"/>
<path d="M163.482 225.653C163.482 225.653 151.783 226.943 148.952 227.007C146.121 227.072 145.282 229.084 145.282 229.084" stroke="#263238" stroke-linecap="round" stroke-linejoin="round"/>
<path d="M153.118 198.521C152.525 201.433 152.187 204.391 152.106 207.363C150.346 208.913 148.308 210.116 146.101 210.91C142.496 212.103 137.717 207.685 134.447 204.009C134.293 202.326 134.093 200.739 133.873 199.314L153.118 198.521Z" fill="#263238"/>
<path d="M127.804 175.432C127.804 175.432 126.037 172.717 124.464 173.265C122.89 173.813 122.89 181.153 123.013 183.087C123.135 185.022 126.985 189.272 128.598 188.105" fill="white"/>
<path d="M127.804 175.432C127.804 175.432 126.037 172.717 124.464 173.265C122.89 173.813 122.89 181.153 123.013 183.087C123.135 185.022 126.985 189.272 128.598 188.105" stroke="#263238" stroke-linecap="round" stroke-linejoin="round"/>
<path d="M166.617 181.152C166.617 181.152 169.087 179.063 170.441 180.043C171.796 181.023 169.667 188.066 168.997 189.865C168.326 191.665 163.405 194.644 162.199 193.058" fill="white"/>
<path d="M166.617 181.152C166.617 181.152 169.087 179.063 170.441 180.043C171.796 181.023 169.667 188.066 168.997 189.865C168.326 191.665 163.405 194.644 162.199 193.058" stroke="#263238" stroke-linecap="round" stroke-linejoin="round"/>
<path d="M142.638 209.317C136.143 208.356 129.694 197.34 128.914 194.238C128.05 190.788 126.147 173.768 129.855 164.442C134.028 153.962 142.754 149.538 151.261 150.789C159.767 152.04 166.849 158.793 167.823 170.034C168.687 180.03 161.954 195.78 160.129 198.837C158.49 201.584 149.494 210.323 142.638 209.317Z" fill="white" stroke="#263238" stroke-linecap="round" stroke-linejoin="round"/>
<path d="M157.362 182.01C157.188 183.216 156.504 184.113 155.84 184.009C155.176 183.906 154.789 182.861 154.963 181.655C155.137 180.449 155.82 179.559 156.485 179.656C157.149 179.753 157.542 180.804 157.362 182.01Z" fill="#263238"/>
<path d="M136.156 178.889C135.982 180.088 136.376 181.146 137.04 181.243C137.704 181.34 138.381 180.443 138.556 179.237C138.73 178.031 138.343 176.98 137.678 176.883C137.014 176.786 136.337 177.683 136.156 178.889Z" fill="#263238"/>
<path d="M150.68 195.174C150.68 195.174 147.314 201.778 143.018 200.694C138.723 199.611 138.755 193.6 138.755 193.426L139.362 193.658C141.059 194.294 142.819 194.748 144.611 195.012C146.347 195.24 148.1 195.309 149.848 195.219C150.371 195.199 150.68 195.174 150.68 195.174Z" fill="#757575"/>
<path d="M145.076 181.43C145.244 185.577 141.683 186.28 142.367 187.718C142.852 188.623 143.671 189.303 144.65 189.614" fill="white"/>
<path d="M145.076 181.43C145.244 185.577 141.683 186.28 142.367 187.718C142.852 188.623 143.671 189.303 144.65 189.614" stroke="#263238" stroke-linecap="round" stroke-linejoin="round"/>
<path d="M138.755 193.406C138.755 193.406 138.717 199.604 143.018 200.688C147.32 201.771 150.68 195.16 150.68 195.16" stroke="#263238" stroke-linecap="round" stroke-linejoin="round"/>
<path d="M132.319 173.413C132.319 173.413 136.189 168.525 142.193 170.072" stroke="#263238" stroke-linecap="round" stroke-linejoin="round"/>
<path d="M162.044 177.799C162.044 177.799 159.742 171.994 153.557 171.756" stroke="#263238" stroke-linecap="round" stroke-linejoin="round"/>
<path d="M180.186 173.897L178.987 175.226L178.058 176.251L167.307 182.494L167.745 179.482L176.549 174.368L178.451 174.123L180.186 173.897Z" fill="#FFCC00" stroke="#263238" stroke-linecap="round" stroke-linejoin="round"/>
<path d="M177.581 176.515C175.988 176.212 176.523 174.361 176.523 174.361L180.16 173.897L177.581 176.515Z" fill="white" stroke="#263238" stroke-linecap="round" stroke-linejoin="round"/>
<path d="M180.16 173.897L178.961 175.219C178.848 175.19 178.743 175.138 178.653 175.064C178.563 174.991 178.49 174.899 178.439 174.795C178.388 174.691 178.361 174.576 178.358 174.46C178.356 174.344 178.379 174.229 178.425 174.123L180.16 173.897Z" fill="#263238"/>
<path d="M157.633 159.76C157.633 159.76 153.55 165.113 144.689 166.661C133.59 168.596 127.463 178.192 127.617 182.197C125.435 176.58 124.779 170.485 125.715 164.532C127.921 149.802 141.664 145.591 151.654 146.616C161.644 147.642 166.488 157.657 166.488 157.657C166.488 157.657 173.988 163.501 172.937 170.866C171.892 177.915 170.183 178.115 169.274 179.708C168.023 181.914 169.667 182.836 165.282 186.467C165.282 186.467 167.017 176.625 164.862 169.286C162.708 161.946 157.633 159.76 157.633 159.76Z" fill="#263238"/>
<path d="M160.38 157.29C160.38 157.29 156.465 172.24 134.215 174.574C134.215 174.574 149.203 171.866 156.143 158.174L160.38 157.29Z" fill="#263238"/>
<path d="M143.496 197.45C143.496 197.45 146.553 196.36 147.733 197.45C147.733 197.45 145.721 200.675 143.135 199.888C140.548 199.101 140 196.018 140 196.018C140 196.018 141.4 195.341 143.496 197.45Z" fill="#BFBFBF"/>
<path d="M150.274 195.225L149.403 196.212C145.971 196.649 142.486 196.092 139.362 194.606L139.059 193.535C140.854 194.216 142.715 194.711 144.611 195.012C146.49 195.239 148.384 195.31 150.274 195.225Z" fill="white"/>
<path d="M137.795 193.019C137.795 193.019 144.786 196.276 151.545 195.044" stroke="#263238" stroke-linecap="round" stroke-linejoin="round"/>
<path d="M159.787 153.575C159.787 153.575 155.047 159.786 143.496 160.734C131.945 161.682 128.598 166.467 128.598 166.467" stroke="#757575" stroke-linecap="round" stroke-linejoin="round"/>
<path d="M133.777 154.065C132.706 154.271 131.197 154.652 130.72 155.742" stroke="#757575" stroke-linecap="round" stroke-linejoin="round"/>
<path d="M161.212 148.751C154.247 153.956 145.25 154.555 136.111 153.82" stroke="#757575" stroke-linecap="round" stroke-linejoin="round"/>
<path d="M117.086 196.36C116.421 197.048 115.9 197.862 115.553 198.753C115.205 199.644 115.038 200.595 115.061 201.552" stroke="#757575" stroke-linecap="round" stroke-linejoin="round"/>
<path d="M125.412 167.332C122.187 169.17 119.575 172.549 119.401 176.361C119.111 182.81 123.722 188.614 118.937 194.232" stroke="#757575" stroke-linecap="round" stroke-linejoin="round"/>
<path d="M124.051 188.305C124.051 188.305 127.624 192.084 125.302 195.928C122.98 199.772 121.781 203.667 126.54 206.505" stroke="#757575" stroke-linecap="round" stroke-linejoin="round"/>
<path d="M150.139 168.473C149.378 168.949 148.59 169.38 147.778 169.763" stroke="#757575" stroke-linecap="round" stroke-linejoin="round"/>
<path d="M158.484 158.954C157.097 162.146 154.92 164.931 152.157 167.048" stroke="#757575" stroke-linecap="round" stroke-linejoin="round"/>
<path d="M161.212 159.489C161.212 159.489 166.043 162.114 167.9 166.467C169.758 170.821 167.139 176.948 168.352 179.063" stroke="#757575" stroke-linecap="round" stroke-linejoin="round"/>
<path d="M168.726 201.952C169.391 202.37 170.121 202.675 170.886 202.855" stroke="#757575" stroke-linecap="round" stroke-linejoin="round"/>
<path d="M164.901 195.928C165.196 197.501 165.859 198.981 166.836 200.249" stroke="#757575" stroke-linecap="round" stroke-linejoin="round"/>
<path d="M162.992 199.391C162.992 199.391 162.541 204.306 165.675 207.556C168.809 210.806 167.894 212.832 167.894 212.832" stroke="#757575" stroke-linecap="round" stroke-linejoin="round"/>
<path d="M157.8 205.015C157.8 205.015 159.671 209.994 156.704 211.652" stroke="#757575" stroke-linecap="round" stroke-linejoin="round"/>
<path d="M164.901 158.122C164.901 158.122 171.957 159.547 172.989 162.636C174.021 165.725 172.989 169.279 172.989 169.279" stroke="#757575" stroke-linecap="round" stroke-linejoin="round"/>
<path d="M74.1781 265.426C68.1931 262.105 69.354 250.161 73.3139 235.243C75.2487 227.917 81.9689 209.446 81.8335 208.801C81.4714 207.559 80.9739 206.361 80.3501 205.228C80.3501 205.228 82.2849 203.254 83.0975 202.9C86.5866 201.41 93.4746 199.533 96.6412 200.842C97.6279 201.249 99.0597 203.551 98.8598 204.493C98.6598 205.434 95.835 208.53 96.1059 211.497C96.3768 214.463 93.8035 224.254 93.8744 228.155C93.8744 228.955 93.9196 229.961 93.9647 231.058C93.9647 231.754 93.9647 243.956 89.2696 250.186" fill="#FFCC00"/>
<path d="M74.1781 265.426C68.1931 262.105 69.354 250.161 73.3139 235.243C75.2487 227.917 81.9689 209.446 81.8335 208.801C81.4714 207.559 80.9739 206.361 80.3501 205.228C80.3501 205.228 82.2849 203.254 83.0975 202.9C86.5866 201.41 93.4746 199.533 96.6412 200.842C97.6279 201.249 99.0597 203.551 98.8598 204.493C98.6598 205.434 95.835 208.53 96.1059 211.497C96.3768 214.463 93.8035 224.254 93.8744 228.155C93.8744 228.955 93.9196 229.961 93.9647 231.058C93.9647 231.754 93.9647 243.956 89.2696 250.186" stroke="#263238" stroke-linecap="round" stroke-linejoin="round"/>
<path d="M93.6358 172.768C93.7648 173.955 96.3252 182.442 97.1185 191.065C98.7369 190.477 100.258 189.651 101.633 188.614C103.239 187.208 106.599 188.331 106.464 189.259C106.328 190.188 103.239 190.033 100.627 193.542C98.0149 197.05 97.4796 200.939 94.0099 202.809C90.5401 204.68 85.1484 205.344 83.046 202.848C80.9435 200.352 78.6088 187.112 79.4279 185.732C80.1266 184.724 81.0003 183.85 82.0076 183.152C82.0076 183.152 82.8912 180.572 84.2326 180.372C85.5741 180.172 88.7472 180.108 88.7472 180.108C89.4886 179.558 90.4086 179.305 91.3269 179.398C91.3269 179.398 90.2821 169.466 89.3921 166.132C88.5021 162.798 92.5846 162.817 93.6358 172.768Z" fill="white" stroke="#263238" stroke-linecap="round" stroke-linejoin="round"/>
<path d="M91.3721 179.398C94.113 180.637 95.3255 185.848 95.3255 186.222C94.7777 188.074 94.1186 189.892 93.352 191.665C92.6684 193.148 91.1915 191.665 91.1915 191.665C91.1915 191.665 90.74 193.6 89.7017 192.755C88.3796 191.665 88.3796 188.137 88.3796 188.137C88.3796 188.137 88.2183 191.072 87.4508 192.504C86.6834 193.935 85.1355 192.981 85.3612 188.744C85.3612 188.744 82.2011 187.97 82.0914 187.196" stroke="#263238" stroke-linecap="round" stroke-linejoin="round"/>
<path d="M88.3796 188.137C87.6056 186.151 84.6325 184.326 84.6325 184.326" stroke="#263238" stroke-linecap="round" stroke-linejoin="round"/>
<path d="M91.1915 191.665C91.1915 191.665 92.7458 187.15 92.3266 186.222C91.9074 185.293 89.2631 182.732 89.2631 182.732" stroke="#263238" stroke-linecap="round" stroke-linejoin="round"/>
<path d="M97.1184 191.084C97.1184 191.084 94.2033 191.729 92.907 195.444" stroke="#263238" stroke-linecap="round" stroke-linejoin="round"/>
<path d="M81.8335 208.775C81.8335 208.775 86.5415 212.645 91.6042 209.42" stroke="#263238" stroke-linecap="round" stroke-linejoin="round"/>
<path d="M85.7934 220.261C84.8871 220.791 83.9159 221.201 82.9041 221.48" stroke="#263238" stroke-linecap="round" stroke-linejoin="round"/>
<path d="M97.1185 207.556C94.8441 211.805 91.7795 215.581 88.0894 218.681" stroke="#263238" stroke-linecap="round" stroke-linejoin="round"/>
<path d="M114.848 221.403C114.848 221.403 124.038 230.032 129.417 232.367" stroke="#263238" stroke-linecap="round" stroke-linejoin="round"/>
<path d="M105.683 230.742C106.098 231.889 106.371 233.082 106.496 234.295" stroke="#263238" stroke-linecap="round" stroke-linejoin="round"/>
<path d="M102.491 223.428C103.316 224.982 104.064 226.588 104.742 228.22" stroke="#263238" stroke-linecap="round" stroke-linejoin="round"/>
<path d="M140 235.243C140 235.243 155.04 235.45 164.695 228.858" stroke="#263238" stroke-linecap="round" stroke-linejoin="round"/>
<path d="M171.421 223.157C170.129 224.036 168.947 225.066 167.9 226.227" stroke="#263238" stroke-linecap="round" stroke-linejoin="round"/>
<path d="M178.974 234.179C177.428 235.782 175.668 237.162 173.743 238.281" stroke="#263238" stroke-linecap="round" stroke-linejoin="round"/>
<path d="M182.25 230.167C181.76 230.905 181.231 231.616 180.663 232.296" stroke="#263238" stroke-linecap="round" stroke-linejoin="round"/>
<path d="M102.904 252.741C102.904 252.741 106.573 247.987 106.496 242.286" stroke="#263238" stroke-linecap="round" stroke-linejoin="round"/>
<path d="M180.96 261.124C180.96 261.124 180.173 251.56 186.881 244.569" stroke="#263238" stroke-linecap="round" stroke-linejoin="round"/>
<path d="M188.222 249.838C188.544 250.16 182.495 255.436 181.057 257.796" stroke="#263238" stroke-linecap="round" stroke-linejoin="round"/>
<path d="M122.116 273.488C122.116 273.488 144.128 282.233 155.53 282.053" stroke="#263238" stroke-linecap="round" stroke-linejoin="round"/>
<path d="M146.024 252.366H143.412C142.988 252.366 142.644 252.71 142.644 253.134V257.119C142.644 257.543 142.988 257.887 143.412 257.887H146.024C146.448 257.887 146.791 257.543 146.791 257.119V253.134C146.791 252.71 146.448 252.366 146.024 252.366Z" fill="#BFBFBF"/>
<path d="M146.024 258.3H143.444C143.132 258.298 142.834 258.173 142.614 257.952C142.394 257.731 142.27 257.431 142.27 257.12V253.134C142.27 252.822 142.394 252.523 142.614 252.302C142.834 252.08 143.132 251.955 143.444 251.954H146.024C146.179 251.954 146.332 251.984 146.475 252.044C146.617 252.103 146.747 252.19 146.856 252.3C146.965 252.409 147.052 252.54 147.11 252.683C147.169 252.826 147.199 252.979 147.198 253.134V257.12C147.199 257.274 147.169 257.428 147.11 257.571C147.052 257.714 146.965 257.844 146.856 257.954C146.747 258.063 146.617 258.15 146.475 258.21C146.332 258.269 146.179 258.3 146.024 258.3ZM143.444 252.773C143.35 252.774 143.259 252.813 143.193 252.881C143.127 252.948 143.089 253.039 143.089 253.134V257.12C143.089 257.214 143.127 257.304 143.193 257.37C143.26 257.437 143.35 257.474 143.444 257.474H146.024C146.071 257.475 146.117 257.467 146.161 257.449C146.204 257.432 146.244 257.405 146.277 257.372C146.31 257.339 146.336 257.3 146.353 257.256C146.371 257.213 146.379 257.166 146.379 257.12V253.134C146.379 253.087 146.371 253.04 146.353 252.996C146.336 252.952 146.31 252.912 146.277 252.879C146.244 252.845 146.205 252.819 146.161 252.8C146.118 252.782 146.071 252.773 146.024 252.773H143.444Z" fill="#263238"/>
<path d="M153.009 218.997C153.009 218.997 164.695 221.403 144.721 251.753C144.721 251.753 121.452 222.28 132.829 217.998" stroke="#263238" stroke-linecap="round" stroke-linejoin="round"/>
<path d="M145.134 251.45C145.134 251.895 144.934 252.256 144.689 252.256C144.444 252.256 144.244 251.895 144.244 251.45C144.244 251.005 144.444 250.644 144.689 250.644C144.934 250.644 145.134 251.005 145.134 251.45Z" fill="#263238"/>
</svg>
