<svg width="310" height="82" viewBox="0 0 310 82" fill="none" xmlns="http://www.w3.org/2000/svg">
<path d="M39.4091 32.6006C39.2273 30.3279 38.375 28.5552 36.8523 27.2824C35.3523 26.0097 33.0682 25.3733 30 25.3733C28.0455 25.3733 26.4432 25.612 25.1932 26.0892C23.9659 26.5438 23.0568 27.1688 22.4659 27.9642C21.875 28.7597 21.5682 29.6688 21.5455 30.6915C21.5 31.5324 21.6477 32.2938 21.9886 32.9756C22.3523 33.6347 22.9205 34.237 23.6932 34.7824C24.4659 35.3052 25.4545 35.7824 26.6591 36.2142C27.8636 36.6461 29.2955 37.0324 30.9545 37.3733L36.6818 38.6006C40.5455 39.4188 43.8523 40.4983 46.6023 41.8392C49.3523 43.1802 51.6023 44.7597 53.3523 46.5779C55.1023 48.3733 56.3864 50.3961 57.2045 52.6461C58.0455 54.8961 58.4773 57.3506 58.5 60.0097C58.4773 64.6006 57.3295 68.487 55.0568 71.6688C52.7841 74.8506 49.5341 77.2711 45.3068 78.9302C41.1023 80.5892 36.0455 81.4188 30.1364 81.4188C24.0682 81.4188 18.7727 80.5211 14.25 78.7256C9.75 76.9302 6.25 74.1688 3.75 70.4415C1.27273 66.6915 0.0227273 61.8961 0 56.0552H18C18.1136 58.1915 18.6477 59.987 19.6023 61.4415C20.5568 62.8961 21.8977 63.9983 23.625 64.7483C25.375 65.4983 27.4545 65.8733 29.8636 65.8733C31.8864 65.8733 33.5795 65.6233 34.9432 65.1233C36.3068 64.6233 37.3409 63.9302 38.0455 63.0438C38.75 62.1574 39.1136 61.1461 39.1364 60.0097C39.1136 58.9415 38.7614 58.0097 38.0795 57.2142C37.4205 56.3961 36.3295 55.6688 34.8068 55.0324C33.2841 54.3733 31.2273 53.7597 28.6364 53.1915L21.6818 51.6915C15.5 50.3506 10.625 48.112 7.05682 44.9756C3.51136 41.8165 1.75 37.5097 1.77273 32.0552C1.75 27.6233 2.93182 23.7483 5.31818 20.4302C7.72727 17.0892 11.0568 14.487 15.3068 12.6233C19.5795 10.7597 24.4773 9.82788 30 9.82788C35.6364 9.82788 40.5114 10.7711 44.625 12.6574C48.7386 14.5438 51.9091 17.2029 54.1364 20.6347C56.3864 24.0438 57.5227 28.0324 57.5455 32.6006H39.4091Z" fill="#333333"/>
<path d="M84.6648 10.7824V80.6006H65.7102V10.7824H84.6648Z" fill="#333333"/>
<path d="M154.057 10.7824V80.6006H138.239L113.011 43.9188H112.602V80.6006H93.6477V10.7824H109.739L134.557 47.3279H135.102V10.7824H154.057Z" fill="#333333"/>
<path d="M181.159 80.6006H160.705L183.75 10.7824H209.659L232.705 80.6006H212.25L196.977 30.0097H196.432L181.159 80.6006ZM177.341 53.0552H215.795V67.237H177.341V53.0552Z" fill="#333333"/>
<path d="M280.909 48.6006L298.364 80.6461H277.773L265.515 57.6006L260.727 48.6006H280.909Z" fill="#333333"/>
<path d="M271.33 42.0552C269.761 42.6006 267.864 42.8733 265.636 42.8733H258.955V57.6006H265.515L260.727 48.6006H280.909L275.29 38.8681C275.193 39.039 275.089 39.2036 274.977 39.362C274.136 40.5892 272.92 41.487 271.33 42.0552Z" fill="#333333"/>
<path d="M240 10.8279V45.737V80.6461H258.955V57.6006V42.8733V25.9642H265.636C266.436 25.9642 267.194 26.0038 267.909 26.083L259.101 10.8279H240Z" fill="#333333"/>
<path d="M270.136 10.8279C275.318 10.8279 279.852 11.7711 283.739 13.6574C287.625 15.5438 290.648 18.2597 292.807 21.8052C294.966 25.3506 296.045 29.6006 296.045 34.5552C296.045 39.5552 294.932 43.7711 292.705 47.2029C291.096 49.7076 289.008 51.7644 286.443 53.3733L276.223 35.6723C276.256 35.3143 276.273 34.9419 276.273 34.5552C276.273 32.5552 275.841 30.9302 274.977 29.6802C274.136 28.4074 272.92 27.4756 271.33 26.8847C271.254 26.855 271.177 26.826 271.099 26.7977L261.879 10.8279H270.136Z" fill="#FFCC00"/>
<path d="M277.154 6.00718L238.07 6.00718L234.64 0H277.154C308.501 0 323.001 45 292.584 63L289.721 58.0487C315.501 39.5 299.001 6.00718 277.154 6.00718Z" fill="#FFCC00"/>
</svg>
