<svg width="75" height="81" viewBox="0 0 75 81" fill="none" xmlns="http://www.w3.org/2000/svg">
<path d="M46.2691 48.6006L63.7236 80.6461H43.1327L30.8745 57.6006L26.0873 48.6006H46.2691Z" fill="white"/>
<path d="M36.6895 42.0552C35.1213 42.6006 33.2236 42.8733 30.9964 42.8733H24.3145V57.6006H30.8745L26.0873 48.6006H46.2691L40.65 38.8681C40.553 39.039 40.4487 39.2036 40.3373 39.362C39.4964 40.5892 38.2804 41.487 36.6895 42.0552Z" fill="white"/>
<path d="M5.35999 10.8279V45.737V80.6461H24.3145V57.6006V42.8733V25.9642H30.9964C31.7962 25.9642 32.5536 26.0038 33.2685 26.083L24.461 10.8279H5.35999Z" fill="white"/>
<path d="M35.4964 10.8279C40.6782 10.8279 45.2123 11.7711 49.0986 13.6574C52.985 15.5438 56.0077 18.2597 58.1668 21.8052C60.3259 25.3506 61.4054 29.6006 61.4054 34.5552C61.4054 39.5552 60.2918 43.7711 58.0645 47.2029C56.4555 49.7076 54.3683 51.7644 51.8028 53.3733L41.5832 35.6723C41.6162 35.3143 41.6327 34.9419 41.6327 34.5552C41.6327 32.5552 41.2009 30.9302 40.3373 29.6802C39.4964 28.4074 38.2804 27.4756 36.6895 26.8847C36.6136 26.855 36.5369 26.826 36.4594 26.7977L27.2392 10.8279H35.4964Z" fill="#FFCC00"/>
<path d="M42.5135 6.00718L3.43001 6.00718L0 0H42.5135C73.8605 0 88.3606 45 57.944 63L55.0806 58.0487C80.8606 39.5 64.3605 6.00718 42.5135 6.00718Z" fill="#FFCC00"/>
</svg>
